<svg width="64" height="65" viewBox="0 0 64 65" fill="none" xmlns="http://www.w3.org/2000/svg">
<path d="M10.6666 43.1668V53.8335H21.3333V59.1668H5.33331V43.1668H10.6666ZM58.6666 43.1668V59.1668H42.6666V53.8335H53.3333V43.1668H58.6666ZM20 19.1668C20 25.7942 25.3726 31.1668 32 31.1668C38.6274 31.1668 44 25.7942 44 19.1668H49.3333C49.3333 25.8529 45.5477 31.6548 40.0029 34.546L40 51.1668H24L23.9998 34.5474C18.4535 31.6567 14.6666 25.854 14.6666 19.1668H20ZM32 13.8335C35.6818 13.8335 38.6666 16.8183 38.6666 20.5002C38.6666 24.1821 35.6818 27.1668 32 27.1668C28.3181 27.1668 25.3333 24.1821 25.3333 20.5002C25.3333 16.8183 28.3181 13.8335 32 13.8335ZM21.3333 5.8335V11.1668L10.6666 11.1642V21.8335H5.33331V5.8335H21.3333ZM58.6666 5.8335V21.8335H53.3333V11.1668H42.6666V5.8335H58.6666Z" fill="#2F2F2F"/>
</svg>
